<svg width="50" height="50" viewBox="0 0 50 50" fill="none" xmlns="http://www.w3.org/2000/svg">
<circle opacity="0.3" cx="25" cy="25" r="25" fill="url(#paint0_linear_1061_2076)"/>
<path d="M38 22.4116C38 18.3182 34.7887 15 30.828 15C28.4235 15 26.3018 16.2265 25 18.1012C23.6989 16.2265 21.5765 15 19.1727 15C15.2113 15 12 18.3182 12 22.4116C12 22.9914 12.0712 23.5532 12.1933 24.0948C13.1899 30.4879 20.0689 37.234 25 39.0862C29.9303 37.234 36.8108 30.4879 37.8052 24.0948C37.9288 23.5532 38 22.9914 38 22.4116Z" fill="url(#paint1_linear_1061_2076)"/>
<defs>
<linearGradient id="paint0_linear_1061_2076" x1="50" y1="50" x2="-16.6397" y2="44.8434" gradientUnits="userSpaceOnUse">
<stop stop-color="#6131AD"/>
<stop offset="0.479067" stop-color="#9771D3"/>
<stop offset="0.479167" stop-color="#9872D4"/>
<stop offset="0.479267" stop-color="#9872D4"/>
<stop offset="0.5" stop-color="#9A75D6"/>
<stop offset="1" stop-color="white"/>
</linearGradient>
<linearGradient id="paint1_linear_1061_2076" x1="38" y1="15" x2="3.38142" y2="17.8917" gradientUnits="userSpaceOnUse">
<stop stop-color="#6131AD"/>
<stop offset="0.479067" stop-color="#9771D3"/>
<stop offset="0.479167" stop-color="#9872D4"/>
<stop offset="0.479267" stop-color="#9872D4"/>
<stop offset="0.5" stop-color="#9A75D6"/>
<stop offset="1" stop-color="white"/>
</linearGradient>
</defs>
</svg>
