<?xml version="1.0" encoding="UTF-8" standalone="no"?>
<!DOCTYPE svg PUBLIC "-//W3C//DTD SVG 1.1//EN" "http://www.w3.org/Graphics/SVG/1.1/DTD/svg11.dtd">
<svg xmlns="http://www.w3.org/2000/svg" version="1.1" viewBox="0.00 0.00 300.00 100.00">
<path fill="white" d="
  M 30.99 21.52
  C 35.88 3.41 58.18 12.09 57.38 28.27
  C 56.79 40.14 43.20 54.08 33.70 59.49
  C 31.44 60.78 28.35 59.94 26.07 58.47
  C 15.71 51.79 0.64 35.59 4.73 22.60
  C 8.77 9.76 26.47 6.30 30.41 21.52
  Q 30.69 22.61 30.99 21.52
  Z
  M 51.4278 20.5633
  A 2.62 1.83 42.3 0 0 50.7216 17.4465
  A 2.62 1.83 42.3 0 0 47.5522 17.0367
  A 2.62 1.83 42.3 0 0 48.2584 20.1535
  A 2.62 1.83 42.3 0 0 51.4278 20.5633
  Z
  M 35.48 43.73
  L 32.61 22.53
  Q 32.35 20.62 31.79 22.46
  L 27.71 35.98
  A 0.74 0.72 -81.2 0 1 27.02 36.50
  L 8.46 36.50
  A 0.49 0.49 0.0 0 0 8.08 37.29
  L 8.31 37.59
  Q 8.43 37.74 8.61 37.74
  L 28.04 37.75
  Q 28.60 37.75 28.76 37.21
  L 31.46 28.23
  A 0.29 0.29 0.0 0 1 32.02 28.28
  L 34.86 49.72
  Q 34.98 50.66 35.33 49.77
  L 39.76 38.26
  A 0.77 0.77 0.0 0 1 40.48 37.77
  Q 46.49 37.73 52.50 37.68
  Q 53.28 37.67 53.35 36.98
  A 0.43 0.43 0.0 0 0 52.92 36.51
  L 39.39 36.49
  Q 38.98 36.49 38.82 36.88
  L 36.12 43.81
  Q 35.65 45.00 35.48 43.73
  Z"
/>
<path fill="#ffffff" d="
  M 90.14 21.11
  C 88.60 19.38 86.74 18.92 84.57 19.84
  A 1.49 1.49 0.0 0 0 84.70 22.64
  Q 88.59 23.86 93.19 24.84
  C 101.24 26.56 101.61 36.68 94.68 39.71
  C 88.33 42.48 74.86 42.55 74.25 32.83
  A 0.54 0.53 88.5 0 1 74.78 32.26
  L 81.70 32.25
  Q 82.11 32.25 82.39 32.55
  Q 85.48 35.83 89.81 34.13
  A 1.47 1.46 -9.6 0 0 90.74 32.83
  Q 90.78 31.62 89.40 31.09
  C 85.22 29.47 77.24 30.19 75.32 23.80
  C 71.54 11.18 95.12 8.20 98.64 20.27
  A 0.95 0.95 0.0 0 1 97.73 21.49
  L 91.02 21.50
  A 1.19 1.17 -20.7 0 1 90.14 21.11
  Z"
/>
<path fill="#ffffff" d="
  M 111.50 28.05
  L 111.49 40.26
  Q 111.49 41.00 110.75 41.00
  L 104.06 41.00
  A 0.69 0.68 90.0 0 1 103.38 40.31
  L 103.38 13.94
  A 0.94 0.93 90.0 0 1 104.31 13.00
  L 110.24 13.01
  A 0.94 0.93 75.0 0 1 111.05 13.48
  L 117.40 24.57
  A 0.38 0.37 -44.7 0 0 118.05 24.57
  L 124.46 13.48
  Q 124.73 13.01 125.27 13.01
  L 131.38 13.01
  A 0.62 0.62 0.0 0 1 132.00 13.63
  L 132.00 40.25
  Q 132.00 41.00 131.25 41.00
  L 124.75 40.99
  Q 124.01 40.99 124.01 40.25
  L 123.99 27.99
  A 0.29 0.29 0.0 0 0 123.44 27.85
  L 120.08 33.78
  Q 119.80 34.28 119.24 34.27
  L 116.17 34.21
  A 0.93 0.93 0.0 0 1 115.38 33.74
  L 112.05 27.91
  Q 111.50 26.94 111.50 28.05
  Z"
/>
<path fill="#ffffff" d="
  M 144.67 37.26
  L 143.41 40.47
  A 0.81 0.81 0.0 0 1 142.66 40.98
  L 136.00 41.01
  A 0.81 0.81 0.0 0 1 135.24 39.92
  L 144.61 13.54
  A 0.81 0.81 0.0 0 1 145.37 13.00
  L 153.96 13.00
  A 0.81 0.81 0.0 0 1 154.72 13.54
  L 164.16 39.91
  A 0.81 0.81 0.0 0 1 163.40 40.99
  L 156.72 41.00
  A 0.81 0.81 0.0 0 1 155.96 40.48
  L 154.72 37.27
  A 0.81 0.81 0.0 0 0 153.96 36.75
  L 145.42 36.75
  A 0.81 0.81 0.0 0 0 144.67 37.26
  Z
  M 146.82 29.61
  A 0.31 0.31 0.0 0 0 147.11 30.02
  L 152.31 29.98
  A 0.31 0.31 0.0 0 0 152.60 29.57
  L 149.95 21.60
  A 0.31 0.31 0.0 0 0 149.36 21.61
  L 146.82 29.61
  Z"
/>
<path fill="#ffffff" d="
  M 175.87 32.80
  L 175.86 39.95
  A 1.06 1.06 0.0 0 1 174.80 41.00
  L 168.38 41.00
  A 1.13 1.12 -0.0 0 1 167.25 39.88
  L 167.26 14.01
  A 0.98 0.97 89.7 0 1 168.22 13.03
  Q 174.41 12.93 180.99 13.04
  C 190.68 13.20 195.50 23.79 187.25 30.01
  Q 186.78 30.36 187.06 30.88
  L 192.03 40.06
  A 0.64 0.63 -14.4 0 1 191.47 41.00
  L 183.91 40.98
  A 1.09 1.07 -12.4 0 1 182.93 40.37
  L 178.98 32.10
  A 1.64 1.63 32.3 0 0 175.87 32.80
  Z
  M 175.85 19.86
  L 175.83 24.76
  A 0.39 0.39 0.0 0 0 176.22 25.15
  L 179.78 25.16
  A 2.67 2.49 0.2 0 0 182.46 22.68
  L 182.46 21.98
  A 2.67 2.49 0.2 0 0 179.80 19.48
  L 176.24 19.47
  A 0.39 0.39 0.0 0 0 175.85 19.86
  Z"
/>
<path fill="#ffffff" d="
  M 201.15 20.51
  L 194.74 20.46
  A 0.75 0.75 0.0 0 1 193.99 19.70
  L 194.01 13.75
  A 0.75 0.75 0.0 0 1 194.76 13.00
  L 217.68 13.00
  A 0.75 0.75 0.0 0 1 218.43 13.74
  L 218.53 19.69
  A 0.75 0.75 0.0 0 1 217.79 20.45
  L 211.30 20.52
  A 0.75 0.75 0.0 0 0 210.56 21.27
  L 210.58 40.26
  A 0.75 0.75 0.0 0 1 209.83 41.01
  L 202.62 40.99
  A 0.75 0.75 0.0 0 1 201.87 40.24
  L 201.89 21.26
  A 0.75 0.75 0.0 0 0 201.15 20.51
  Z"
/>
<path fill="#ffffff" d="
  M 230.60 20.99
  L 230.61 23.61
  A 0.89 0.89 0.0 0 0 231.50 24.50
  L 241.84 24.50
  A 0.89 0.89 0.0 0 1 242.73 25.39
  L 242.76 30.68
  A 0.89 0.89 0.0 0 1 241.87 31.57
  L 231.49 31.62
  A 0.89 0.89 0.0 0 0 230.60 32.51
  L 230.59 40.10
  A 0.89 0.89 0.0 0 1 229.70 40.99
  L 223.02 41.00
  A 0.89 0.89 0.0 0 1 222.13 40.11
  L 222.12 13.89
  A 0.89 0.89 0.0 0 1 223.01 13.00
  L 242.65 13.00
  A 0.89 0.89 0.0 0 1 243.54 13.88
  L 243.63 19.23
  A 0.89 0.89 0.0 0 1 242.74 20.14
  L 231.49 20.10
  A 0.89 0.89 0.0 0 0 230.60 20.99
  Z"
/>
<rect fill="#ffffff" x="247.88" y="13.00" width="8.86" height="28.00" rx="1.06"/>
<path fill="#ffffff" d="
  M 277.00 21.26
  L 276.99 40.24
  A 0.75 0.75 0.0 0 1 276.24 40.99
  L 269.00 41.00
  A 0.75 0.75 0.0 0 1 268.25 40.25
  L 268.25 21.27
  A 0.75 0.75 0.0 0 0 267.51 20.52
  L 261.10 20.44
  A 0.75 0.75 0.0 0 1 260.36 19.68
  L 260.43 13.74
  A 0.75 0.75 0.0 0 1 261.18 13.00
  L 284.07 13.00
  A 0.75 0.75 0.0 0 1 284.82 13.75
  L 284.84 19.72
  A 0.75 0.75 0.0 0 1 284.09 20.47
  L 277.75 20.51
  A 0.75 0.75 0.0 0 0 277.00 21.26
  Z"
/>
<path fill="#ffffff" d="
  M 78.50 54.24
  L 80.55 50.66
  Q 80.90 50.05 81.60 50.11
  L 82.68 50.19
  A 0.40 0.40 0.0 0 1 83.00 50.78
  C 81.90 52.71 79.63 55.82 79.52 57.99
  Q 79.46 59.19 79.50 60.39
  Q 79.52 60.96 78.94 60.97
  L 77.53 61.01
  Q 77.02 61.02 77.01 60.51
  C 76.98 58.97 77.27 57.73 76.51 56.33
  Q 75.04 53.62 73.49 50.96
  Q 73.25 50.54 73.69 50.32
  C 75.98 49.21 77.12 52.92 77.86 54.24
  Q 78.18 54.80 78.50 54.24
  Z"
/>
<path fill="#ffffff" d="
  M 93.7473 57.1480
  A 3.97 3.97 0.0 0 1 89.7703 61.1111
  L 88.4903 61.1089
  A 3.97 3.97 0.0 0 1 84.5273 57.1320
  L 84.5327 54.0120
  A 3.97 3.97 0.0 0 1 88.5097 50.0489
  L 89.7897 50.0511
  A 3.97 3.97 0.0 0 1 93.7527 54.0280
  L 93.7473 57.1480
  Z
  M 91.2428 53.9737
  A 1.98 1.98 0.0 0 0 89.2663 51.9902
  L 89.0063 51.9898
  A 1.98 1.98 0.0 0 0 87.0228 53.9663
  L 87.0172 57.2063
  A 1.98 1.98 0.0 0 0 88.9937 59.1898
  L 89.2537 59.1902
  A 1.98 1.98 0.0 0 0 91.2372 57.2137
  L 91.2428 53.9737
  Z"
/>
<path fill="#ffffff" d="
  M 96.41 51.00
  Q 96.79 49.45 98.44 50.27
  A 0.77 0.77 0.0 0 1 98.87 50.96
  L 98.85 57.45
  A 1.60 1.59 -83.7 0 0 100.09 59.01
  C 101.93 59.42 102.92 58.85 102.96 56.93
  Q 103.02 53.76 103.00 50.59
  Q 102.99 49.99 103.59 50.06
  L 104.98 50.23
  Q 105.52 50.30 105.52 50.85
  C 105.50 55.05 106.93 62.17 99.74 60.97
  C 97.85 60.65 96.81 59.85 96.55 57.82
  Q 95.94 52.95 96.41 51.00
  Z"
/>
<path fill="#ffffff" d="
  M 110.80 57.79
  L 110.80 60.33
  Q 110.80 60.97 110.17 60.98
  L 109.07 60.99
  Q 108.38 61.00 108.38 60.32
  L 108.39 50.81
  Q 108.39 50.31 108.89 50.26
  C 112.44 49.94 118.93 49.83 116.67 55.13
  Q 116.47 55.58 116.10 55.90
  L 115.46 56.45
  A 0.56 0.56 0.0 0 0 115.34 57.17
  L 117.12 60.25
  Q 117.55 60.98 116.71 60.99
  L 115.44 61.00
  Q 114.88 61.01 114.62 60.51
  L 112.91 57.26
  A 1.12 1.12 0.0 0 0 110.80 57.79
  Z
  M 110.82 52.52
  L 110.86 54.76
  A 0.44 0.44 0.0 0 0 111.30 55.19
  L 112.83 55.17
  A 1.73 1.28 -0.9 0 0 114.54 53.86
  L 114.54 53.30
  A 1.73 1.28 -0.9 0 0 112.79 52.05
  L 111.26 52.07
  A 0.44 0.44 0.0 0 0 110.82 52.52
  Z"
/>
<path fill="#ffffff" d="
  M 126.50 57.74
  L 126.50 60.48
  Q 126.50 60.97 126.02 60.98
  L 124.51 61.00
  Q 124.00 61.01 124.00 60.51
  L 124.00 50.73
  Q 124.00 50.12 124.61 50.13
  C 127.05 50.18 134.72 49.50 132.43 55.06
  C 131.62 57.00 129.01 57.24 127.18 57.10
  Q 126.49 57.05 126.50 57.74
  Z
  M 126.48 52.52
  L 126.50 54.78
  A 0.45 0.45 0.0 0 0 126.95 55.23
  L 128.35 55.22
  A 1.89 1.40 -0.3 0 0 130.23 53.81
  L 130.23 53.45
  A 1.89 1.40 -0.3 0 0 128.33 52.06
  L 126.93 52.07
  A 0.45 0.45 0.0 0 0 126.48 52.52
  Z"
/>
<path fill="#ffffff" d="
  M 140.46 58.99
  L 136.78 59.00
  A 0.69 0.69 0.0 0 0 136.11 59.57
  Q 135.79 61.41 133.87 60.97
  Q 133.33 60.85 133.52 60.34
  L 136.96 51.01
  A 1.82 1.82 0.0 0 1 140.37 51.00
  L 143.81 60.29
  Q 144.00 60.80 143.48 60.95
  Q 141.51 61.50 141.13 59.54
  A 0.68 0.67 -5.1 0 0 140.46 58.99
  Z
  M 137.28 56.48
  A 0.42 0.42 0.0 0 0 137.69 57.03
  L 139.76 56.98
  A 0.42 0.42 0.0 0 0 140.14 56.42
  L 139.05 53.32
  A 0.42 0.42 0.0 0 0 138.25 53.34
  L 137.28 56.48
  Z"
/>
<path fill="#ffffff" d="
  M 146.95 52.24
  L 144.65 52.26
  A 0.44 0.44 0.0 0 1 144.21 51.86
  L 144.10 50.61
  A 0.44 0.44 0.0 0 1 144.53 50.13
  L 152.56 50.15
  A 0.44 0.44 0.0 0 1 153.00 50.60
  L 152.98 51.82
  A 0.44 0.44 0.0 0 1 152.54 52.25
  L 150.28 52.25
  A 0.44 0.44 0.0 0 0 149.84 52.69
  L 149.84 60.54
  A 0.44 0.44 0.0 0 1 149.41 60.98
  L 147.84 60.99
  A 0.44 0.44 0.0 0 1 147.39 60.55
  L 147.39 52.68
  A 0.44 0.44 0.0 0 0 146.95 52.24
  Z"
/>
<path fill="#ffffff" d="
  M 162.00 54.00
  L 162.00 50.45
  A 0.41 0.41 0.0 0 1 162.46 50.04
  L 163.99 50.23
  A 0.41 0.41 0.0 0 1 164.35 50.64
  L 164.31 60.58
  A 0.41 0.41 0.0 0 1 163.91 60.99
  L 162.42 61.00
  A 0.41 0.41 0.0 0 1 162.00 60.59
  L 162.00 56.95
  A 0.41 0.41 0.0 0 0 161.58 56.54
  L 158.15 56.59
  A 0.41 0.41 0.0 0 0 157.74 57.01
  L 157.76 60.58
  A 0.41 0.41 0.0 0 1 157.35 60.99
  L 155.66 60.98
  A 0.41 0.41 0.0 0 1 155.25 60.57
  L 155.26 50.55
  A 0.41 0.41 0.0 0 1 155.69 50.14
  L 157.36 50.21
  A 0.41 0.41 0.0 0 1 157.75 50.62
  L 157.75 53.99
  A 0.41 0.41 0.0 0 0 158.16 54.40
  L 161.59 54.41
  A 0.41 0.41 0.0 0 0 162.00 54.00
  Z"
/>
<path fill="#ffffff" d="
  M 176.24 52.75
  L 176.25 60.50
  Q 176.25 61.00 175.75 60.99
  L 174.37 60.99
  Q 173.75 60.99 173.75 60.37
  L 173.75 52.74
  Q 173.75 52.24 173.24 52.24
  L 171.32 52.25
  Q 170.89 52.25 170.70 51.87
  Q 169.89 50.16 171.23 50.14
  Q 175.04 50.08 178.80 50.16
  Q 179.45 50.18 179.39 50.82
  L 179.32 51.74
  Q 179.27 52.25 178.76 52.25
  L 176.75 52.25
  Q 176.24 52.25 176.24 52.75
  Z"
/>
<path fill="#ffffff" d="
  M 190.4200 57.0224
  A 4.11 4.11 0.0 0 1 186.2814 61.1036
  L 185.2014 61.0961
  A 4.11 4.11 0.0 0 1 181.1202 56.9575
  L 181.1400 54.1176
  A 4.11 4.11 0.0 0 1 185.2786 50.0364
  L 186.3586 50.0439
  A 4.11 4.11 0.0 0 1 190.4398 54.1825
  L 190.4200 57.0224
  Z
  M 187.8641 53.9916
  A 2.01 2.01 0.0 0 0 185.8090 52.0277
  L 185.5290 52.0341
  A 2.01 2.01 0.0 0 0 183.5652 54.0892
  L 183.6359 57.2084
  A 2.01 2.01 0.0 0 0 185.6910 59.1723
  L 185.9710 59.1659
  A 2.01 2.01 0.0 0 0 187.9348 57.1108
  L 187.8641 53.9916
  Z"
/>
<path fill="#ffffff" d="
  M 199.99 55.39
  Q 200.60 56.72 200.72 55.26
  Q 200.85 53.53 202.17 52.44
  A 0.71 0.70 -28.8 0 1 203.29 52.76
  L 204.39 56.00
  A 0.25 0.24 -49.5 0 0 204.86 55.96
  L 205.83 50.67
  Q 205.95 50.04 206.58 50.10
  L 207.63 50.20
  Q 208.25 50.26 208.14 50.87
  L 206.53 60.03
  A 1.32 1.31 40.7 0 1 203.99 60.22
  L 202.79 56.69
  Q 202.45 55.68 202.09 56.68
  L 200.88 60.08
  A 1.35 1.34 -40.1 0 1 198.29 59.86
  L 196.66 50.67
  Q 196.57 50.15 197.09 50.16
  L 198.55 50.18
  Q 199.14 50.18 199.16 50.78
  Q 199.26 53.81 199.99 55.39
  Z"
/>
<path fill="#ffffff" d="
  M 213.55 54.65
  L 217.67 54.61
  A 0.41 0.41 0.0 0 1 218.09 55.04
  L 218.05 56.10
  A 0.41 0.41 0.0 0 1 217.64 56.50
  L 213.58 56.48
  A 0.41 0.41 0.0 0 0 213.17 56.85
  L 213.00 58.55
  A 0.41 0.41 0.0 0 0 213.40 59.00
  L 218.35 59.00
  A 0.41 0.41 0.0 0 1 218.75 59.44
  L 218.66 60.61
  A 0.41 0.41 0.0 0 1 218.25 60.99
  L 211.17 61.00
  A 0.41 0.41 0.0 0 1 210.76 60.59
  L 210.75 50.57
  A 0.41 0.41 0.0 0 1 211.16 50.16
  L 218.08 50.14
  A 0.41 0.41 0.0 0 1 218.49 50.54
  L 218.50 51.65
  A 0.41 0.41 0.0 0 1 218.10 52.06
  L 213.45 52.10
  A 0.41 0.41 0.0 0 0 213.04 52.53
  L 213.14 54.26
  A 0.41 0.41 0.0 0 0 213.55 54.65
  Z"
/>
<path fill="#ffffff" d="
  M 224.19 58.92
  L 228.53 58.91
  A 0.44 0.44 0.0 0 1 228.97 59.34
  L 228.98 60.55
  A 0.44 0.44 0.0 0 1 228.54 61.00
  L 221.69 60.99
  A 0.44 0.44 0.0 0 1 221.25 60.55
  L 221.25 50.56
  A 0.44 0.44 0.0 0 1 221.72 50.12
  L 223.34 50.22
  A 0.44 0.44 0.0 0 1 223.75 50.65
  L 223.75 58.48
  A 0.44 0.44 0.0 0 0 224.19 58.92
  Z"
/>
<path fill="#ffffff" d="
  M 234.05 58.89
  L 238.45 58.93
  A 0.44 0.44 0.0 0 1 238.89 59.37
  L 238.88 60.56
  A 0.44 0.44 0.0 0 1 238.44 61.00
  L 231.57 61.00
  A 0.44 0.44 0.0 0 1 231.13 60.56
  L 231.14 50.53
  A 0.44 0.44 0.0 0 1 231.63 50.09
  L 233.20 50.26
  A 0.44 0.44 0.0 0 1 233.59 50.69
  L 233.61 58.45
  A 0.44 0.44 0.0 0 0 234.05 58.89
  Z"
/>
<path fill="#ffffff" d="
  M 247.51 56.04
  L 247.50 50.80
  Q 247.50 50.11 248.20 50.12
  L 249.20 50.13
  Q 249.75 50.14 249.75 50.69
  L 249.75 59.93
  A 1.24 1.23 -61.6 0 1 247.48 60.61
  L 244.00 55.27
  Q 243.39 54.35 243.38 55.45
  L 243.34 60.33
  Q 243.33 60.99 242.67 60.99
  L 241.50 60.99
  Q 241.00 60.99 241.00 60.50
  L 241.00 51.40
  A 1.33 1.33 0.0 0 1 243.45 50.68
  L 246.97 56.20
  Q 247.51 57.04 247.51 56.04
  Z"
/>
<path fill="#ffffff" d="
  M 255.61 59.00
  L 260.33 59.00
  A 0.41 0.41 0.0 0 1 260.73 59.36
  L 260.87 60.54
  A 0.41 0.41 0.0 0 1 260.47 61.00
  L 253.29 61.00
  A 0.41 0.41 0.0 0 1 252.88 60.59
  L 252.91 50.57
  A 0.41 0.41 0.0 0 1 253.32 50.16
  L 260.33 50.15
  A 0.41 0.41 0.0 0 1 260.73 50.63
  L 260.53 51.74
  A 0.41 0.41 0.0 0 1 260.13 52.07
  L 255.58 52.10
  A 0.41 0.41 0.0 0 0 255.18 52.53
  L 255.29 54.25
  A 0.41 0.41 0.0 0 0 255.69 54.63
  L 259.99 54.63
  A 0.41 0.41 0.0 0 1 260.39 55.08
  L 260.29 56.13
  A 0.41 0.41 0.0 0 1 259.88 56.50
  L 255.68 56.49
  A 0.41 0.41 0.0 0 0 255.27 56.88
  L 255.20 58.57
  A 0.41 0.41 0.0 0 0 255.61 59.00
  Z"
/>
<path fill="#ffffff" d="
  M 269.27 57.74
  A 1.06 1.06 0.0 0 0 268.30 56.71
  Q 265.79 56.51 263.75 55.11
  Q 263.35 54.83 263.23 54.35
  C 262.04 49.26 268.87 48.94 271.39 52.16
  Q 271.73 52.59 271.31 52.94
  Q 270.18 53.90 269.00 52.75
  Q 267.29 51.09 265.85 52.47
  A 0.95 0.95 0.0 0 0 266.21 54.06
  L 270.14 55.34
  A 2.45 2.45 0.0 0 1 271.83 57.80
  C 271.59 62.00 264.56 62.21 262.93 58.81
  A 1.00 1.00 0.0 0 1 264.57 57.71
  Q 265.64 58.90 267.24 59.15
  Q 269.31 59.49 269.27 57.74
  Z"
/>
<path fill="#ffffff" d="
  M 276.75 52.42
  A 1.09 1.09 0.0 0 0 277.29 54.25
  C 279.45 54.73 282.69 55.04 282.76 57.92
  C 282.86 61.78 277.30 61.29 274.59 60.20
  A 1.42 1.42 0.0 0 1 274.45 57.64
  Q 275.25 57.21 276.17 58.12
  C 277.25 59.19 278.67 59.73 279.85 58.64
  A 1.01 1.01 0.0 0 0 279.43 56.92
  C 277.82 56.50 275.20 56.07 274.36 54.65
  C 273.74 53.60 273.76 52.18 274.77 51.31
  Q 277.57 48.88 281.77 51.34
  A 1.09 1.08 -38.7 0 1 281.55 53.31
  Q 280.64 53.60 279.84 52.88
  C 278.86 52.00 277.74 51.42 276.75 52.42
  Z"
/>
</svg>
