<svg width="22" height="22" viewBox="0 0 22 22" fill="none" xmlns="http://www.w3.org/2000/svg">
<path d="M9.48445 22.0001H1.00973C0.870493 22.0005 0.732683 21.9735 0.605006 21.9207C0.47733 21.8679 0.362566 21.7905 0.26797 21.6934C0.173374 21.5964 0.101003 21.4817 0.0554335 21.3566C0.00986404 21.2316 -0.0079129 21.0989 0.00322648 20.9671L0.481314 15.3044H7.47145C9.48445 22.0384 9.09695 20.6992 9.48445 22.0001Z" fill="#E2E2E2"/>
<path d="M13.0072 3.82618V12.4349H0.717834L1.35696 4.70618C1.37725 4.46598 1.49218 4.24191 1.67878 4.07876C1.86538 3.91561 2.1099 3.8254 2.36346 3.82618H2.9422C2.9422 5.94009 6.9682 10.5218 6.9682 10.5218C6.9682 10.5218 10.9942 5.94009 10.9942 3.82618H13.0072Z" fill="#E2E2E2"/>
<path d="M21.2706 12.4349H16.0267V3.82618H19.625C19.8785 3.8254 20.123 3.91561 20.3097 4.07876C20.4963 4.24191 20.6112 4.46598 20.6315 4.70618L21.2706 12.4349Z" fill="#E2E2E2"/>
<path d="M21.9852 21.0436C21.9852 21.2973 21.8792 21.5406 21.6904 21.7199C21.5016 21.8993 21.2456 22.0001 20.9787 22.0001H12.504L10.491 15.3044H21.5071C22.1311 22.7844 21.9852 20.5892 21.9852 21.0436Z" fill="#E2E2E2"/>
<path d="M9.48445 22.0001H1.00973C0.870493 22.0005 0.732683 21.9735 0.605006 21.9207C0.47733 21.8679 0.362566 21.7905 0.26797 21.6934C0.173374 21.5964 0.101003 21.4817 0.0554335 21.3566C0.00986404 21.2316 -0.0079129 21.0989 0.00322648 20.9671L0.481314 15.3044H7.47145C9.48445 22.0384 9.09695 20.6992 9.48445 22.0001Z" fill="#E2E2E2"/>
<path d="M13.0072 3.82618V12.4349H0.717834L1.35696 4.70618C1.37725 4.46598 1.49218 4.24191 1.67878 4.07876C1.86538 3.91561 2.1099 3.8254 2.36346 3.82618H2.9422C2.9422 5.94009 6.9682 10.5218 6.9682 10.5218C6.9682 10.5218 10.9942 5.94009 10.9942 3.82618H13.0072Z" fill="#E2E2E2"/>
<path d="M21.2706 12.4349H16.0267V3.82618H19.625C19.8785 3.8254 20.123 3.91561 20.3097 4.07876C20.4963 4.24191 20.6112 4.46598 20.6315 4.70618L21.2706 12.4349Z" fill="#E2E2E2"/>
<path d="M21.9852 21.0436C21.9852 21.2973 21.8792 21.5406 21.6904 21.7199C21.5016 21.8993 21.2456 22.0001 20.9787 22.0001H12.504L10.491 15.3044H21.5071C22.1311 22.7844 21.9852 20.5892 21.9852 21.0436Z" fill="#E2E2E2"/>
<path d="M12.504 22.0001H9.48446L7.47146 15.3044H0.481323L0.717851 12.4349H13.0072V3.82617H16.0267V12.4349H21.2706L21.5071 15.3044H10.491C12.504 22.0383 12.1165 20.6992 12.504 22.0001Z" fill="white"/>
<path d="M10.491 15.3044L12.2171 21.0436H9.19763L7.47148 15.3044H1.93573C2.03638 14.0992 1.98605 14.7353 2.17226 12.4349H13.0072V3.82617H16.0267V12.4349H21.2706L21.5071 15.3044H10.491Z" fill="white"/>
<path d="M13.0072 3.82617V12.4349H2.14709C2.25278 11.1675 2.14709 12.2531 2.68054 5.98791C3.63073 7.58863 4.72879 9.10591 5.96173 10.5218C5.96173 10.5218 6.158 10.297 6.46498 9.924C6.77196 10.297 6.96823 10.5218 6.96823 10.5218C6.96823 10.5218 10.9942 5.94008 10.9942 3.82617H13.0072Z" fill="#BBBBBB"/>
<path d="M9.19762 21.0436H2.51949C2.38026 21.044 2.24245 21.017 2.11477 20.9642C1.9871 20.9114 1.87233 20.834 1.77774 20.7369C1.68314 20.6398 1.61077 20.5251 1.5652 20.4001C1.51963 20.2751 1.50185 20.1424 1.51299 20.0105L1.93572 15.3044H7.47147L9.19762 21.0436Z" fill="#BBBBBB"/>
<path d="M21.9852 21.0436H12.2171L10.491 15.3044H21.5071C22.1311 22.7844 21.9852 20.5892 21.9852 21.0436Z" fill="#BBBBBB"/>
<path d="M21.2706 12.4349H16.0267V3.82618H19.625C19.8785 3.8254 20.123 3.91561 20.3097 4.07876C20.4963 4.24191 20.6112 4.46598 20.6315 4.70618L21.2706 12.4349Z" fill="#BBBBBB"/>
<path d="M10.9942 3.82609C10.9942 5.59087 8.12064 9.20174 6.9682 10.5217C6.9682 10.5217 2.9422 5.94 2.9422 3.82609C2.9422 2.81134 3.36637 1.83816 4.12139 1.12063C4.87641 0.403104 5.90044 0 6.9682 0C8.03596 0 9.05999 0.403104 9.81501 1.12063C10.57 1.83816 10.9942 2.81134 10.9942 3.82609Z" fill="#7B6F72"/>
<path d="M10.9942 3.82615C10.9942 5.29441 9.04661 7.95832 7.86397 9.44093C7.22987 8.69962 3.94869 4.78267 3.94869 2.86962C3.94638 2.08883 4.19963 1.32668 4.67336 0.688755C5.27683 0.290897 5.98333 0.0575021 6.71636 0.0138413C7.44938 -0.0298194 8.18101 0.117917 8.83203 0.441056C9.48305 0.764194 10.0287 1.25042 10.4098 1.84709C10.7909 2.44377 10.993 3.12815 10.9942 3.82615Z" fill="#ADA4A5"/>
<path d="M6.96825 5.26092C7.80206 5.26092 8.47799 4.61855 8.47799 3.82614C8.47799 3.03373 7.80206 2.39136 6.96825 2.39136C6.13443 2.39136 5.4585 3.03373 5.4585 3.82614C5.4585 4.61855 6.13443 5.26092 6.96825 5.26092Z" fill="#7B6F72"/>
</svg>
