<svg width="410" height="419" viewBox="0 0 410 419" fill="none" xmlns="http://www.w3.org/2000/svg">
<g clip-path="url(#clip0_150_835)">
<path d="M410 244.487C410 244.487 331.207 412.698 208.936 418.483C86.6649 424.268 0 361.736 0 361.736V-38.1848H410V244.487Z" fill="url(#paint0_linear_150_835)"/>
<path d="M154.488 326.544C132.403 378.987 138.708 414.42 138.708 414.42C159.663 418.036 180.947 419.516 202.23 418.862C229.199 418.036 254.127 410.116 276.723 398.098C277.488 368.967 266.956 342.969 259.448 328.197C211.159 350.269 169.029 333.775 154.488 326.544Z" fill="#AB8DA8"/>
<path d="M160.975 312.426C158.606 317.246 156.42 321.964 154.524 326.544C169.029 333.775 211.196 350.303 259.448 328.196C255.33 320.104 252.086 315.387 252.086 315.387C252.086 315.387 190.677 252.303 160.975 312.426Z" fill="#FEF9EF"/>
<path d="M208.936 418.483V400.336L225.628 389.386L214.585 403.952L215.715 417.967L208.936 418.483Z" fill="#543753"/>
<path d="M129.596 198.792C129.596 198.792 127.92 199.378 127.628 215.424C127.337 231.471 126.061 263.391 126.061 263.391C126.061 263.391 110.645 249.858 109.515 243.04C108.386 236.222 108.859 230.093 108.094 226.34C107.329 222.586 107.183 212.325 107.511 210.397C107.839 208.468 102.664 208.158 101.243 211.017C99.8212 213.875 99.3475 223.378 98.6186 223.723C97.8897 224.067 89.5439 224.79 88.7421 226.512C87.9404 228.234 89.3617 231.367 88.1226 233.984C86.8835 236.601 88.2319 238.461 88.1226 240.458C88.0132 242.455 87.503 243.213 88.4506 246.243C89.3981 249.273 89.5804 251.821 91.111 252.303L92.6417 252.785L97.999 254.507C97.999 254.507 120.959 303.369 132.33 304.437C143.7 305.504 149.641 296.965 151.062 290.078C152.483 283.191 160.1 241.939 160.1 241.939L129.596 198.792Z" fill="#FFEDE5"/>
<path d="M142.498 232.745L155.108 268.935L160.1 241.904L142.498 232.745Z" fill="#E0855C"/>
<path d="M126.061 263.357C126.061 263.357 136.776 271.862 140.311 278.852C140.311 278.852 134.589 264.527 126.28 257.882L126.061 263.357Z" fill="#E0855C"/>
<path d="M94.4275 252.097C94.4275 252.097 105.616 251.821 106.527 251.167C107.438 250.513 107.475 247.414 107.001 247.035C107.001 247.035 107.912 242.524 107.074 241.353C107.074 241.353 107.402 238.013 107.037 236.05C107.037 236.05 108.896 246.105 108.677 247.689C108.459 249.273 109.333 251.959 104.304 252.751C99.2746 253.543 94.4275 252.097 94.4275 252.097Z" fill="#E0855C"/>
<path d="M107.074 241.422C107.037 241.422 107.037 241.422 107.001 241.422C106.819 241.388 106.673 241.215 106.709 241.043C107.183 238.254 106.418 232.848 106.418 232.813V232.745V232.676C106.746 231.471 107.438 228.062 106.491 227.029C105.652 226.099 97.5616 225.858 92.6416 225.927C92.4594 225.927 92.2772 225.789 92.2772 225.582C92.2772 225.376 92.423 225.238 92.6416 225.238C94.8283 225.203 105.725 225.135 107.037 226.581C108.349 228.027 107.329 232.056 107.147 232.779C107.219 233.433 107.875 238.392 107.402 241.147C107.402 241.319 107.219 241.422 107.074 241.422Z" fill="#472938"/>
<path d="M106.782 233.089C106.746 233.089 106.782 233.089 106.782 233.089L95.0471 232.572C94.8284 232.572 94.6826 232.4 94.6826 232.228C94.6826 232.021 94.8284 231.884 95.0471 231.884L106.782 232.4C107.001 232.4 107.147 232.572 107.147 232.745C107.147 232.951 106.964 233.089 106.782 233.089Z" fill="#472938"/>
<path d="M106.964 247.379H95.4115C95.1928 247.379 95.0471 247.241 95.0471 247.035C95.0471 246.828 95.1928 246.69 95.4115 246.69H106.964C107.183 246.69 107.329 246.828 107.329 247.035C107.329 247.241 107.183 247.379 106.964 247.379Z" fill="#472938"/>
<path d="M107.183 239.873H93.9172C93.6985 239.873 93.5528 239.735 93.5528 239.528C93.5528 239.322 93.6985 239.184 93.9172 239.184H107.183C107.402 239.184 107.547 239.322 107.547 239.528C107.547 239.735 107.402 239.873 107.183 239.873Z" fill="#472938"/>
<path d="M305.004 182.023L327.089 181.231C328.036 181.196 328.838 181.885 328.875 182.78L330.587 225.823C330.624 226.718 329.895 227.476 328.947 227.51L306.862 228.302C305.915 228.337 305.113 227.648 305.076 226.753L303.364 183.71C303.327 182.78 304.056 182.057 305.004 182.023Z" fill="#3B2645"/>
<path d="M306.789 226.891C306.644 226.891 306.534 226.787 306.534 226.65L304.821 183.607C304.821 183.538 304.858 183.469 304.894 183.435C304.931 183.4 305.004 183.366 305.077 183.366L327.162 182.574C327.308 182.574 327.417 182.677 327.417 182.815L329.13 225.858C329.13 225.995 329.021 226.099 328.875 226.099L306.789 226.891Z" fill="#FEF9EF"/>
<path d="M236.525 176.685C236.525 176.685 259.703 178.889 264.004 196.657C268.304 214.425 276.249 256.642 276.249 256.642C276.249 256.642 293.159 231.057 294.508 226.994C295.856 222.931 300.229 209.191 300.084 204.508C299.938 199.825 304.785 203.165 304.785 208.744L305.514 227.201C305.55 227.82 306.097 228.302 306.753 228.268H306.789L329.166 226.684C329.932 226.65 330.478 226.03 330.442 225.307V225.066C330.442 225.066 328.838 221.932 329.312 220.486C329.786 219.04 333.612 218.902 334.05 219.246C334.487 219.591 336.856 223.895 336.783 225.066C336.71 226.236 333.94 229.886 332.118 230.437C330.296 230.988 312.147 235.12 308.429 240.423C304.712 245.726 288.458 292.178 275.265 295.759C262.072 299.341 249.207 265.56 246.182 255.678C243.157 245.795 236.525 176.685 236.525 176.685Z" fill="#FFEDE5"/>
<path d="M242.356 231.47C243.777 242.868 245.198 252.441 246.182 255.643C247.604 260.258 251.175 270.14 255.949 278.955L257.407 214.047L242.356 231.47Z" fill="#E0855C"/>
<path d="M329.822 206.988C329.822 206.988 337.731 210.81 337.585 212.428C337.439 214.047 335.945 216.939 334.414 216.801C332.884 216.664 330.004 215.217 329.203 213.53C328.401 211.843 328 206.437 329.822 206.988Z" fill="#FFEDE5"/>
<path d="M330.223 212.6C330.223 212.6 338.132 216.423 337.986 218.041C337.84 219.659 336.346 222.552 334.815 222.414C333.284 222.276 330.405 220.83 329.604 219.143C328.802 217.456 328.401 212.049 330.223 212.6Z" fill="#FFEDE5"/>
<path d="M330.223 200.17C330.223 200.17 338.132 203.992 337.986 205.61C337.84 207.229 336.346 210.121 334.815 209.984C333.284 209.846 330.405 208.4 329.604 206.712C328.802 205.025 328.401 199.584 330.223 200.17Z" fill="#FFEDE5"/>
<path d="M269.106 270.312C269.033 270.312 268.996 270.312 268.924 270.278C268.741 270.209 268.668 269.968 268.778 269.83L275.921 256.504C275.994 256.332 276.249 256.263 276.395 256.367C276.577 256.435 276.65 256.676 276.54 256.814L269.397 270.14C269.361 270.243 269.252 270.312 269.106 270.312Z" fill="#472938"/>
<path d="M166.733 289.217C166.77 300.408 160.975 312.391 160.975 312.391C160.975 312.391 201.1 333.672 252.05 315.352C252.05 315.352 245.818 300.201 246.619 284.362C205.437 277.13 166.733 289.217 166.733 289.217Z" fill="#FFEDE5"/>
<path d="M129.596 198.792C126.608 203.028 138.124 224.102 149.131 245.416C159.153 224.239 153.285 198.517 149.896 187.463C142.133 190.287 132.621 194.454 129.596 198.792Z" fill="#FFEDE5"/>
<path d="M246.619 284.396C246.692 282.743 246.875 281.09 247.13 279.438C247.275 278.439 247.458 277.372 247.64 276.235C214.949 267.799 176.027 277.44 165.057 280.505C166.114 283.914 166.733 286.875 166.733 289.217C166.733 289.217 205.437 277.13 246.619 284.396Z" fill="#FEF9EF"/>
<path d="M149.131 246.553C148.985 246.553 148.876 246.484 148.803 246.346L140.676 229.818C140.603 229.645 140.676 229.439 140.858 229.37C141.04 229.301 141.259 229.37 141.332 229.542L149.459 246.071C149.532 246.243 149.459 246.449 149.276 246.518C149.24 246.553 149.167 246.553 149.131 246.553Z" fill="#472938"/>
<path d="M211.451 319.519C212.014 319.519 212.471 319.087 212.471 318.555C212.471 318.023 212.014 317.591 211.451 317.591C210.887 317.591 210.43 318.023 210.43 318.555C210.43 319.087 210.887 319.519 211.451 319.519Z" fill="#E0855C"/>
<path d="M255.658 216.078C255.658 215.837 255.658 215.596 255.658 215.39C255.658 215.286 255.658 215.149 255.658 215.045C255.658 214.77 255.658 214.529 255.621 214.253C255.621 214.184 255.621 214.116 255.621 214.012C255.621 213.668 255.585 213.358 255.585 213.048V212.841C255.585 212.6 255.548 212.325 255.548 212.084C255.548 211.981 255.548 211.877 255.512 211.774C255.512 211.567 255.475 211.361 255.475 211.189L255.439 210.844C255.439 210.672 255.403 210.466 255.366 210.293C255.366 210.19 255.33 210.087 255.33 209.949C255.293 209.742 255.293 209.57 255.257 209.364C255.257 209.26 255.22 209.191 255.22 209.088C255.184 208.813 255.148 208.537 255.075 208.262C252.232 191.94 236.488 176.651 236.488 176.651C236.488 176.651 242.611 199.619 244.579 202.305C251.758 212.153 255.767 218.076 255.257 225.927C255.293 225.513 255.33 225.135 255.366 224.721C255.366 224.618 255.366 224.515 255.366 224.411C255.403 224.102 255.403 223.792 255.439 223.516C255.439 223.413 255.439 223.275 255.475 223.172C255.475 222.896 255.512 222.621 255.512 222.311L255.548 221.967C255.548 221.657 255.585 221.381 255.585 221.106C255.585 221.002 255.585 220.934 255.585 220.83C255.621 220.073 255.658 219.315 255.658 218.558C255.658 218.454 255.658 218.385 255.658 218.282C255.658 218.007 255.658 217.731 255.658 217.456V217.111C255.658 216.87 255.658 216.629 255.658 216.388V216.078Z" fill="#FFEDE5"/>
<path d="M244.579 202.339C242.611 199.653 236.524 176.685 236.524 176.685H231.896L160.975 183.848C160.975 183.848 155.982 185.225 149.896 187.429C153.249 198.482 159.153 224.239 149.131 245.382C155.727 258.192 162.105 271.07 165.02 280.505C175.99 277.406 214.913 267.799 247.603 276.235C249.754 263.219 253.908 242.489 255.257 225.961C255.767 218.11 251.758 212.187 244.579 202.339Z" fill="#AB8DA8"/>
<path d="M172.856 262.324C171.107 262.324 169.284 262.117 167.353 261.669C167.171 261.635 167.025 261.428 167.098 261.256C167.134 261.084 167.353 260.946 167.535 261.015C174.459 262.668 180.072 260.774 185.976 258.811C191.588 256.917 197.383 254.989 204.818 255.781C219.833 257.365 244.287 253.543 244.542 253.508C244.761 253.474 244.943 253.612 244.979 253.784C245.016 253.956 244.87 254.163 244.688 254.197C244.433 254.232 219.869 258.088 204.781 256.504C197.529 255.747 191.807 257.641 186.267 259.5C181.821 260.912 177.594 262.324 172.856 262.324Z" fill="#472938"/>
<path d="M228.908 84.8835C228.908 84.8835 247.932 86.6741 242.21 110.572C236.488 134.469 242.137 133.402 247.093 146.039C252.05 158.676 226.138 150.309 226.138 150.309C226.138 150.309 239.331 168.972 169.212 160.915C111.374 154.269 149.969 125.792 149.969 125.792C149.969 125.792 132.585 127.961 153.395 110.606C168.045 98.3818 175.844 53.445 228.908 84.8835Z" fill="#3B2645"/>
<path d="M216.298 150.997C216.298 150.997 210.43 170.453 218.484 174.068C224.68 176.858 231.896 176.685 231.896 176.685C231.896 176.685 229.418 228.268 198.804 228.819C168.191 229.37 160.975 183.848 160.975 183.848C160.975 183.848 173.439 179.716 177.156 171.624C180.874 163.532 181.056 152.203 181.056 152.203L216.298 150.997Z" fill="#FFEDE5"/>
<path d="M231.005 136.289C234.124 131.183 234.054 125.626 230.846 123.877C227.639 122.127 222.51 124.847 219.39 129.953C216.27 135.058 216.341 140.615 219.549 142.365C222.756 144.115 227.885 141.394 231.005 136.289Z" fill="#E0855C"/>
<path d="M223.368 136.673C223.259 136.673 223.186 136.638 223.113 136.569C222.967 136.432 222.967 136.225 223.113 136.087L228.616 131.198C228.762 131.06 228.981 131.06 229.126 131.198C229.272 131.335 229.272 131.542 229.126 131.68L223.623 136.569C223.55 136.673 223.477 136.673 223.368 136.673Z" fill="#472938"/>
<path d="M173.663 138.485C177.267 137.68 179.024 132.376 177.587 126.639C176.151 120.902 172.065 116.905 168.461 117.71C164.857 118.516 163.1 123.819 164.537 129.556C165.973 135.293 170.059 139.291 173.663 138.485Z" fill="#FFEDE5"/>
<path d="M214.476 167.595C213.382 160.639 216.298 150.963 216.298 150.963L181.02 152.203C181.02 152.203 180.983 154.716 180.546 158.229C180.546 158.263 198.149 178.407 214.476 167.595Z" fill="#E0855C"/>
<path d="M172.71 131.439C172.601 131.439 172.492 131.37 172.419 131.267L168.92 126.205C168.811 126.033 168.847 125.826 169.029 125.723C169.212 125.619 169.43 125.654 169.54 125.826L173.038 130.888C173.148 131.06 173.111 131.267 172.929 131.37C172.856 131.439 172.783 131.439 172.71 131.439Z" fill="#472938"/>
<path d="M175.043 95.1105C175.043 95.1105 162.506 159.055 191.953 165.701C221.4 172.347 231.896 112.706 231.131 100.31C230.365 87.9138 179.416 84.1604 175.043 95.1105Z" fill="#FFEDE5"/>
<path d="M214.221 124.345C215.168 124.517 215.788 125.378 215.642 126.274L215.46 127.272C215.277 128.168 214.366 128.753 213.419 128.615C212.471 128.443 211.852 127.582 211.997 126.687L212.18 125.688C212.362 124.793 213.273 124.173 214.221 124.345Z" fill="#472938"/>
<path d="M186.778 121.453C187.762 121.453 188.527 122.176 188.527 123.106V124.104C188.527 124.999 187.762 125.757 186.778 125.757C185.83 125.757 185.029 125.034 185.029 124.104V123.106C185.029 122.176 185.794 121.453 186.778 121.453Z" fill="#472938"/>
<path d="M220.635 122.624C220.635 122.624 219.323 120.764 215.533 120.144C211.742 119.524 210.54 119.731 210.503 118.595C210.467 117.458 218.958 115.702 220.635 122.624Z" fill="#472938"/>
<path d="M181.275 117.906C181.275 117.906 183.17 116.563 186.96 117.149C190.75 117.768 191.807 118.319 192.244 117.252C192.682 116.184 185.284 111.88 181.275 117.906Z" fill="#472938"/>
<path d="M188.491 142.286L204.235 143.973C204.235 143.973 201.793 154.028 194.832 152.857C187.908 151.721 188.491 142.286 188.491 142.286Z" fill="white"/>
<path d="M198.914 139.806C197.82 139.806 196.618 139.531 195.524 139.049C195.342 138.98 195.269 138.773 195.342 138.601C195.415 138.429 195.634 138.36 195.816 138.429C197.42 139.152 199.205 139.324 200.408 138.877C200.918 138.704 201.246 138.429 201.392 138.119C201.866 137.052 201.684 133.746 201.465 129.924L201.392 128.581C200.991 121.522 205.474 120.179 205.656 120.11C205.838 120.041 206.057 120.144 206.093 120.351C206.166 120.523 206.057 120.73 205.838 120.764C205.656 120.799 201.72 122.038 202.084 128.546L202.157 129.889C202.376 133.952 202.595 137.189 202.012 138.394C201.793 138.877 201.319 139.29 200.627 139.531C200.189 139.737 199.57 139.806 198.914 139.806Z" fill="#472938"/>
<path d="M226.138 130.681C226.138 130.681 228.507 113.43 220.635 103.995C220.635 103.995 213.965 115.909 203.032 111.777C203.032 111.777 188.017 124.07 172.71 120.489C157.404 116.907 162.834 83.0929 185.029 81.6467C207.223 80.2005 252.378 88.6369 226.138 130.681Z" fill="#3B2645"/>
</g>
<defs>
<linearGradient id="paint0_linear_150_835" x1="410" y1="418.861" x2="-137.081" y2="380.885" gradientUnits="userSpaceOnUse">
<stop stop-color="#F09932"/>
<stop offset="1" stop-color="#FFDCB2"/>
</linearGradient>
<clipPath id="clip0_150_835">
<rect width="410" height="419" fill="white"/>
</clipPath>
</defs>
</svg>
