<svg width="410" height="406" viewBox="0 0 410 406" fill="none" xmlns="http://www.w3.org/2000/svg">
<g clip-path="url(#clip0_105_232)">
<path d="M0 214.043C0 214.043 64.9804 90.4374 133.423 90.4374C201.866 90.4374 249.79 218.742 318.233 218.742C386.676 218.742 379.095 151.957 410 151.957V-40H0V214.043Z" fill="url(#paint0_linear_105_232)"/>
<path d="M179.926 172.119L161.121 177.618C161.121 177.618 155.399 197.813 157.185 201.413C158.971 205.012 169.029 207.744 173.803 205.578C178.578 203.412 194.759 189.249 194.759 189.249L179.926 172.119Z" fill="#FFEDE5"/>
<path d="M197.164 152.623C197.164 152.623 185.138 165.087 179.926 172.119L193.338 191.281L207.369 179.751C207.369 179.751 205.036 147.858 197.164 152.623Z" fill="#543753"/>
<path d="M177.776 172.752V191.948L183.826 177.685L179.926 172.119L177.776 172.752Z" fill="#E0855C"/>
<path d="M176.865 161.622C178.505 161.988 179.015 160.955 180.364 162.921C181.712 164.887 184.555 172.586 183.789 173.752C183.024 174.919 174.532 182.417 173.913 182.417C173.293 182.417 171.726 180.317 172.054 179.584C172.054 179.584 170.05 180.684 168.738 180.484C168.738 180.484 165.822 181.884 164.656 181.617C163.49 181.35 156.675 172.152 158.278 169.72C159.882 167.287 160.902 168.553 161.85 167.587C162.797 166.62 164.401 165.021 166.332 165.187C168.264 165.354 169.139 162.621 171.945 163.021C174.751 163.421 173.22 160.788 176.865 161.622Z" fill="#FFEDE5"/>
<path d="M172.018 179.917C171.872 179.917 171.763 179.851 171.69 179.751C171.58 179.584 171.653 179.384 171.836 179.318C171.872 179.318 175.152 177.718 176.027 176.551L176.1 176.485C176.136 176.485 177.995 174.952 178.614 173.785L175.444 167.22C175.371 167.054 175.444 166.854 175.626 166.787C175.808 166.72 176.027 166.787 176.1 166.954L179.38 173.785L179.307 173.919C178.76 175.185 176.865 176.751 176.573 176.985C175.553 178.284 172.273 179.851 172.127 179.917C172.127 179.884 172.091 179.917 172.018 179.917Z" fill="#472938"/>
<path d="M168.701 180.817C168.555 180.817 168.446 180.75 168.373 180.617L164.328 173.086C164.255 172.919 164.328 172.719 164.51 172.652C164.692 172.586 164.911 172.652 164.984 172.819L169.029 180.351C169.102 180.517 169.029 180.717 168.847 180.784C168.811 180.817 168.774 180.817 168.701 180.817Z" fill="#472938"/>
<path d="M174.168 178.751C174.022 178.751 173.913 178.684 173.84 178.551L170.05 171.086C169.977 170.919 170.05 170.719 170.232 170.653C170.414 170.586 170.633 170.653 170.706 170.819L174.496 178.284C174.569 178.451 174.496 178.651 174.314 178.718C174.277 178.751 174.204 178.751 174.168 178.751Z" fill="#472938"/>
<path d="M173.876 182.75C173.293 182.75 172.637 181.917 172.382 181.584C172.2 181.35 171.799 180.75 171.653 180.151C170.961 180.451 169.758 180.917 168.774 180.85C168.191 181.117 165.713 182.217 164.547 181.95C163.891 181.817 162.688 180.351 162.032 179.484C161.923 179.317 161.959 179.118 162.105 179.018C162.251 178.918 162.506 178.951 162.615 179.084C163.745 180.584 164.51 181.217 164.692 181.284C165.458 181.45 167.426 180.684 168.519 180.184L168.628 180.151H168.738C169.94 180.317 171.799 179.284 171.836 179.284L172.783 178.784L172.382 179.717C172.346 179.817 172.346 180.151 172.71 180.784C173.148 181.517 173.658 181.984 173.876 182.084C174.788 181.617 180.728 176.485 182.842 174.419C180.874 174.852 178.979 174.085 178.906 174.052C178.724 173.985 178.651 173.785 178.724 173.619C178.796 173.452 179.015 173.385 179.197 173.452C179.234 173.452 181.603 174.419 183.607 173.452C183.862 173.319 184.044 173.385 184.117 173.485C184.227 173.552 184.3 173.719 184.227 173.885C183.972 174.485 174.751 182.75 173.876 182.75Z" fill="#472938"/>
<path d="M238.383 132.595L256.642 143.092V164.854C256.642 164.854 237.654 200.979 238.383 214.01L194.905 221.441C194.905 221.441 184.482 183.183 197.164 152.59L216.553 140.126L238.383 132.595Z" fill="#AB8DA8"/>
<path d="M190.896 190.715C190.714 190.715 190.532 190.582 190.532 190.382C190.386 181.15 191.188 172.552 192.973 164.754C193.01 164.587 193.192 164.454 193.411 164.487C193.593 164.521 193.739 164.687 193.702 164.887C191.953 172.619 191.115 181.184 191.297 190.348C191.26 190.548 191.115 190.715 190.896 190.715Z" fill="#472938"/>
<path d="M256.642 164.887L242.392 162.921L250.373 177.684L256.642 164.887Z" fill="#543753"/>
<path d="M233.645 119.231L238.383 132.595C233.317 134.394 228.762 137.194 225.044 140.826C218.812 146.891 216.407 152.623 212.653 152.623C208.899 152.623 216.589 140.16 216.589 140.16L215.605 128.496L233.645 119.231Z" fill="#FFEDE5"/>
<path d="M216.079 134.428C216.079 134.428 224.425 133.295 228.689 122.33L215.569 128.496L216.079 134.428Z" fill="#E0855C"/>
<path d="M209.884 91.9371C209.884 91.9371 201.829 127.862 206.02 130.329C210.212 132.795 226.757 130.662 232.916 120.664C239.076 110.666 231.349 91.9371 209.884 91.9371Z" fill="#FFEDE5"/>
<path d="M207.296 104.701C207.296 104.701 199.715 113.666 200.481 114.532C201.246 115.399 205.401 116.632 205.401 116.632L207.296 104.701Z" fill="#FFEDE5"/>
<path d="M230.037 115.232C230.037 115.232 226.247 113.499 228.689 105.934C228.689 105.934 223.769 97.9691 220.562 96.6694C217.355 95.3697 209.191 94.9698 209.191 94.9698C209.191 94.9698 207.551 84.4721 210.284 83.3724C213.018 82.2726 238.31 82.9058 243.084 91.0706C244.688 93.8367 243.668 95.503 243.668 95.503C243.668 95.503 246.364 98.7689 245.891 101.568C245.417 104.368 237.982 114.732 237.982 114.732L230.037 115.232Z" fill="#3B2645"/>
<path d="M237.602 117.964C240.135 115.647 240.85 112.545 239.199 111.036C237.548 109.526 234.156 110.18 231.623 112.497C229.09 114.813 228.374 117.915 230.025 119.425C231.676 120.934 235.068 120.28 237.602 117.964Z" fill="#FFEDE5"/>
<path d="M209.227 122.397C207.515 122.397 205.984 121.964 205.875 121.93C205.692 121.864 205.583 121.697 205.656 121.497C205.729 121.331 205.911 121.231 206.13 121.297C206.166 121.297 211.123 122.764 212.835 120.364C212.945 120.197 213.163 120.164 213.346 120.264C213.528 120.364 213.564 120.564 213.455 120.731C212.471 122.03 210.795 122.397 209.227 122.397Z" fill="#472938"/>
<path d="M231.969 116.765C231.86 116.765 231.714 116.698 231.677 116.598C231.568 116.432 231.604 116.232 231.787 116.132L234.739 114.432C234.921 114.332 235.14 114.365 235.249 114.532C235.358 114.699 235.322 114.899 235.14 114.999L232.188 116.698C232.115 116.731 232.042 116.765 231.969 116.765Z" fill="#472938"/>
<path d="M212.325 104.734C213.091 104.901 213.564 105.601 213.382 106.267L213.163 107.167C212.981 107.867 212.216 108.3 211.487 108.133C210.722 107.967 210.248 107.267 210.43 106.601L210.649 105.701C210.831 105.001 211.56 104.568 212.325 104.734Z" fill="#3B2645"/>
<path d="M210.795 101.235C210.795 101.235 215.605 100.935 216.844 104.534C216.844 104.534 216.699 100.768 213.674 100.202C210.649 99.6353 209.665 101.068 210.795 101.235Z" fill="#3B2645"/>
<path d="M244.87 136.327C228.507 133.794 239.367 165.354 239.367 165.354L263.858 172.119L272.932 146.625C258.683 140.893 244.87 136.327 244.87 136.327Z" fill="#AB8DA8"/>
<path d="M267.684 210.91C267.684 210.91 259.047 213.677 258.209 214.91C257.371 216.143 258.172 220.508 258.172 220.508C257.261 221.841 256.532 223.241 256.022 224.741C255.293 226.974 257.116 226.307 259.266 228.573C261.416 230.839 263.165 230.273 264.404 231.306C265.644 232.339 268.158 232.006 269.142 232.439C270.126 232.872 271.985 234.339 273.115 234.272C274.244 234.205 276.905 230.673 279.092 226.24C281.278 221.808 280.877 218.209 281.861 212.877C282.845 207.545 305.842 173.252 303.145 163.954C301.796 159.322 287.146 152.39 272.896 146.625L263.821 172.119L276.796 175.718L267.684 210.91Z" fill="#FFEDE5"/>
<path d="M280.695 176.985C280.659 176.985 280.622 176.985 280.586 176.985L276.686 176.018C276.504 175.985 276.358 175.785 276.431 175.618C276.467 175.452 276.686 175.352 276.868 175.385L280.768 176.352C280.95 176.385 281.096 176.585 281.023 176.751C281.023 176.885 280.877 176.985 280.695 176.985Z" fill="#472938"/>
<path d="M310.324 296.391L324.501 289.893C324.501 289.893 324.173 287.36 327.016 284.494C329.859 281.628 327.745 274.996 325.084 273.93C322.424 272.863 321.112 273.596 318.816 270.164L298.298 278.295L310.324 296.391Z" fill="#FFEDE5"/>
<path d="M325.048 273.93C327.708 274.996 329.786 281.628 326.979 284.494C324.173 287.36 324.465 289.893 324.465 289.893C336.601 291.392 348.008 307.655 350.158 309.488C352.308 311.321 361.019 310.022 361.274 308.655C361.529 307.289 342.614 261.666 340.865 260.666C339.115 259.666 318.779 270.164 318.779 270.164C321.075 273.596 322.387 272.863 325.048 273.93Z" fill="#AB8DA8"/>
<path d="M361.274 308.655C361.492 307.289 342.614 261.666 340.865 260.666C340.428 260.399 338.824 260.866 336.71 261.699C341.74 270.83 354.568 302.29 357.739 310.088C359.634 309.755 361.164 309.222 361.274 308.655Z" fill="#E5E5E5"/>
<path d="M201.027 248.202C201.027 248.202 233.536 326.184 247.239 327.218C260.942 328.251 316.556 294.092 316.556 294.092L306.206 275.129L259.229 289.293L247.531 240.337L201.027 248.202Z" fill="#3B2645"/>
<g opacity="0.5">
<path opacity="0.5" d="M247.531 240.37L201.027 248.202C201.027 248.202 209.373 268.197 219.359 288.06L251.394 256.7L247.531 240.37Z" fill="#3B2645"/>
</g>
<path d="M115.602 360.677L109.333 373.974C109.333 373.974 111.374 375.74 111.228 379.573C111.083 383.405 117.351 387.271 120.157 386.504C122.964 385.738 123.437 384.405 127.628 385.705L137.614 367.375L115.602 360.677Z" fill="#FFEDE5"/>
<path d="M113.415 365.309C113.415 365.309 122.016 373.541 133.277 375.274L137.578 367.375L115.602 360.644L113.415 365.309Z" fill="#E0855C"/>
<path d="M238.383 214.043C238.383 214.043 257.407 234.205 247.494 250.202C237.581 266.198 178.505 295.591 174.496 304.623C170.487 313.654 168.227 324.085 160.027 336.616C151.827 349.146 138.744 371.241 138.744 371.241C138.744 371.241 118.955 370.541 112.504 362.71C112.504 362.71 144.429 288.826 152.046 279.262C159.663 269.697 195.597 229.173 195.597 229.173L194.868 221.475L238.383 214.043Z" fill="#3B2645"/>
<path d="M129.742 368.608C129.706 368.608 129.706 368.608 129.669 368.608C129.596 368.575 129.523 368.475 129.596 368.375C129.961 367.675 165.13 299.157 172.163 291.159C174.751 288.193 182.368 281.228 191.151 273.163C206.202 259.366 224.899 242.204 227.413 236.938C231.349 228.74 228.725 217.209 228.689 217.076C228.652 216.976 228.725 216.909 228.835 216.876C228.944 216.843 229.017 216.909 229.053 217.009C229.09 217.109 231.714 228.773 227.741 237.071C225.19 242.37 206.458 259.566 191.406 273.397C182.623 281.461 175.042 288.393 172.455 291.359C165.458 299.324 130.289 367.809 129.961 368.509C129.888 368.575 129.815 368.608 129.742 368.608Z" fill="white"/>
<path d="M124.749 367.575C124.713 367.575 124.713 367.575 124.676 367.575C124.603 367.542 124.531 367.442 124.603 367.342C124.968 366.642 161.449 296.058 165.676 290.126C167.827 287.093 180.655 274.696 193.046 262.732C205.292 250.902 217.974 238.638 220.416 235.372C225.299 228.84 224.279 218.242 224.279 218.142C224.279 218.042 224.352 217.976 224.461 217.976C224.571 217.976 224.644 218.042 224.644 218.142C224.644 218.242 225.7 228.973 220.707 235.605C218.229 238.904 205.547 251.168 193.301 263.032C180.91 274.996 168.118 287.393 165.968 290.393C161.777 296.325 125.26 366.876 124.895 367.575C124.895 367.542 124.822 367.575 124.749 367.575Z" fill="white"/>
<path d="M120.121 386.538C117.351 387.271 111.046 383.438 111.192 379.606C111.338 375.773 109.297 374.007 109.297 374.007C98.9466 380.006 78.7928 374.274 75.8408 374.14C72.8888 374.007 67.1306 380.139 67.9324 381.306C68.7341 382.472 115.274 406.267 117.351 406.033C119.428 405.8 127.555 385.771 127.555 385.771C123.401 384.438 122.927 385.805 120.121 386.538Z" fill="#AB8DA8"/>
<path d="M67.9688 381.306C68.7342 382.472 115.31 406.267 117.388 406.033C117.898 405.967 118.809 404.7 119.829 402.801C109.552 398.768 77.5537 382.239 69.6817 378.14C68.4426 379.473 67.6408 380.806 67.9688 381.306Z" fill="#E5E5E5"/>
<g opacity="0.5">
<path opacity="0.5" d="M195.597 229.173C195.597 229.173 217.209 226.707 216.99 226.773C216.771 226.84 195.306 225.907 195.306 225.907L195.597 229.173Z" fill="#3B2645"/>
</g>
</g>
<defs>
<linearGradient id="paint0_linear_105_232" x1="410" y1="218.742" x2="-131.575" y2="152.336" gradientUnits="userSpaceOnUse">
<stop stop-color="#F09932"/>
<stop offset="1" stop-color="#FFDCB2"/>
</linearGradient>
<clipPath id="clip0_105_232">
<rect width="410" height="406" fill="white"/>
</clipPath>
</defs>
</svg>
