<svg width="23" height="23" viewBox="0 0 23 23" fill="none" xmlns="http://www.w3.org/2000/svg">
<path d="M11.5 1.91675C12.6053 1.91675 13.6458 2.19395 14.5559 2.68264C14.4828 3.10987 14.3412 3.41217 14.1475 3.60587C14.0415 3.71186 13.9029 3.80224 13.7289 3.87446C13.0564 3.54097 12.3 3.35425 11.5 3.35425C8.72132 3.35425 6.46875 5.60682 6.46875 8.3855C6.46875 10.4346 7.69371 12.1976 9.4513 12.9821C10.1107 13.2394 10.7196 13.3809 11.2779 13.4107L11.5 13.4167C12.1179 13.4167 12.8009 13.2738 13.5482 12.9833C14.4258 12.5911 15.1706 11.9553 15.6965 11.162C16.3092 11.3729 17.0465 11.2448 17.5114 10.7782C17.1136 11.7775 16.4739 12.6538 15.6648 13.3354L17.2187 17.9977C17.4738 18.7632 17.1477 19.6019 16.4424 19.9939C15.1278 20.7247 13.4782 21.0834 11.5 21.0834C9.52176 21.0834 7.87216 20.7247 6.55758 19.9939C5.85231 19.6019 5.52618 18.7632 5.78134 17.9978L7.33523 13.3354C5.92638 12.1488 5.03125 10.3717 5.03125 8.3855C5.03125 4.81291 7.92741 1.91675 11.5 1.91675ZM14.4292 14.1751L14.0846 14.3171L14.0672 14.3248C13.3709 14.6262 12.6112 14.8087 11.8136 14.8468C11.8076 14.8457 11.8022 14.846 11.7967 14.8463C11.7739 14.8486 11.7505 14.8495 11.7271 14.8503L11.5 14.8542L11.3122 14.8504L11.1869 14.8454C10.3888 14.8087 9.62909 14.6262 8.93278 14.3248L8.91544 14.3171C8.80137 14.2725 8.68649 14.2252 8.5708 14.1751L7.14507 18.4523C7.10862 18.5617 7.15521 18.6815 7.25597 18.7375C8.33757 19.3387 9.75013 19.6459 11.5 19.6459C13.2499 19.6459 14.6624 19.3387 15.744 18.7375C15.8448 18.6815 15.8914 18.5617 15.8549 18.4523L14.4292 14.1751ZM11.2028 14.8475L11.3122 14.8504L11.3441 14.852L11.5 14.8542C11.4004 14.8542 11.3013 14.852 11.2028 14.8475ZM17.2427 1.80195L17.25 1.91675C17.25 3.01846 17.5086 3.79432 17.9978 4.28351C18.4494 4.73508 19.1452 4.99018 20.1161 5.02675L20.3646 5.03133C21.283 5.03133 21.3213 6.35154 20.4794 6.46155L20.3646 6.46883C19.2629 6.46883 18.487 6.72745 17.9978 7.21665C17.5463 7.66821 17.2912 8.36404 17.2546 9.33494L17.25 9.58341C17.25 10.5417 15.8125 10.5417 15.8125 9.58341C15.8125 8.48171 15.5539 7.70584 15.0647 7.21665C14.6131 6.76508 13.9173 6.50998 12.9464 6.47341L12.6979 6.46883C11.7795 6.46883 11.7412 5.14863 12.5831 5.03861L12.6979 5.03133C13.7996 5.03133 14.5755 4.77271 15.0647 4.28351C15.5539 3.79432 15.8125 3.01846 15.8125 1.91675C15.8125 0.998345 17.1327 0.960078 17.2427 1.80195ZM16.5313 4.74623L16.3936 4.94141C16.2977 5.06801 16.1936 5.18758 16.0812 5.29998C15.9125 5.46859 15.7278 5.61853 15.5274 5.75008C15.7278 5.88163 15.9125 6.03157 16.0812 6.20018C16.2498 6.36879 16.3997 6.5535 16.5313 6.75393C16.6628 6.5535 16.8127 6.36879 16.9814 6.20018C17.15 6.03157 17.3347 5.88163 17.5351 5.75008C17.3347 5.61853 17.15 5.46859 16.9814 5.29998C16.8689 5.18758 16.7648 5.06801 16.6689 4.94141L16.5313 4.74623Z" fill="#ADA4A5"/>
</svg>
