<svg version="1.1" id="Layer_1" xmlns="http://www.w3.org/2000/svg" xmlns:xlink="http://www.w3.org/1999/xlink" x="0px" y="0px"
	 width="100%" viewBox="0 0 452 450" enable-background="new 0 0 452 450" xml:space="preserve">
<path fill="#FFFFFF" opacity="1.000000" stroke="none" 
	d="
M251.000000,451.000000 
	C167.356369,451.000000 84.212738,451.000000 1.034554,451.000000 
	C1.034554,301.064575 1.034554,151.129166 1.034554,1.096875 
	C151.560303,1.096875 302.120667,1.096875 452.840515,1.096875 
	C452.840515,150.999863 452.840515,300.999908 452.840515,451.000000 
	C385.795807,451.000000 318.647919,451.000000 251.000000,451.000000 
M221.939621,422.994385 
	C226.730499,422.997681 231.525909,423.132416 236.311005,422.967773 
	C241.212372,422.799133 246.103683,422.337219 251.895416,422.003784 
	C266.443939,421.198761 280.399872,417.578003 294.146851,413.020294 
	C294.905609,412.768738 295.412567,411.757690 296.859558,411.070435 
	C312.131744,407.561523 325.537476,400.212677 338.744324,390.944397 
	C341.046082,389.351746 343.299988,387.684143 345.657623,386.178986 
	C358.066711,378.256805 368.232361,367.860962 378.583588,356.667023 
	C382.149261,352.158234 385.862000,347.757172 389.256989,343.123322 
	C412.445770,311.472687 424.801086,275.893951 426.889954,236.831451 
	C427.921814,217.535202 425.834229,198.402252 420.930786,179.676697 
	C415.642029,159.479660 407.984436,140.276794 395.746735,122.362625 
	C385.577606,105.450722 372.268890,91.336830 356.729340,78.341644 
	C345.385956,67.500610 331.730621,60.192997 317.588531,52.442535 
	C312.595093,50.238640 307.707397,47.743065 302.587830,45.887054 
	C288.759277,40.873749 274.862030,36.014542 259.435913,34.416759 
	C250.295639,33.641521 241.160965,32.342968 232.013458,32.245472 
	C223.684433,32.156693 215.341522,33.371830 206.175171,34.020557 
	C196.803314,36.010784 187.289703,37.496864 178.085892,40.084728 
	C149.206772,48.204746 123.371155,62.159882 101.190369,82.419968 
	C86.672554,95.680641 74.044205,110.558762 63.851894,127.545425 
	C46.932194,155.744064 37.628822,186.281204 36.270336,218.934601 
	C35.682556,233.062866 37.023254,247.463470 39.191559,261.476776 
	C44.787510,297.642212 60.533890,329.390350 84.518715,356.836945 
	C103.681114,378.765106 126.795464,395.736328 153.664017,407.173462 
	C162.156296,410.788391 171.205261,413.095551 180.497452,416.559906 
	C193.999268,418.700714 207.501083,420.841522 221.939621,422.994385 
z"/>
<path fill="#FEF6E9" opacity="1.000000" stroke="none" 
	d="
M179.999451,416.001221 
	C171.205261,413.095551 162.156296,410.788391 153.664017,407.173462 
	C126.795464,395.736328 103.681114,378.765106 84.518715,356.836945 
	C60.533890,329.390350 44.787510,297.642212 39.191559,261.476776 
	C37.023254,247.463470 35.682556,233.062866 36.270336,218.934601 
	C37.628822,186.281204 46.932194,155.744064 63.851894,127.545425 
	C74.044205,110.558762 86.672554,95.680641 101.190369,82.419968 
	C123.371155,62.159882 149.206772,48.204746 178.085892,40.084728 
	C187.289703,37.496864 196.803314,36.010784 206.588699,34.400009 
	C209.099686,38.957535 210.955460,43.280251 213.349655,47.280735 
	C217.214310,53.738205 216.851761,57.090099 210.860901,61.808685 
	C214.445908,64.631401 217.941971,67.695045 212.770203,70.079636 
	C212.161285,75.617012 211.668961,80.094246 211.266861,83.750778 
	C211.900818,87.826599 212.445801,91.330399 212.526184,94.893219 
	C207.232346,94.965973 202.402542,94.937729 197.574036,95.004021 
	C191.468369,95.087845 187.970932,97.854317 186.764862,103.912247 
	C185.955109,107.979500 185.566467,112.132515 185.036285,116.253189 
	C181.855042,140.978516 178.704697,165.707825 175.508972,190.431274 
	C173.420807,206.586258 171.191055,222.723373 169.190323,238.889008 
	C168.306610,246.029205 171.218460,248.760956 178.455933,247.936768 
	C182.254715,247.504166 186.026138,246.831100 189.952667,246.706161 
	C190.052948,255.037918 190.457855,262.963165 189.878571,270.815826 
	C188.506012,289.421722 186.530457,307.982452 185.057846,326.581970 
	C183.844330,341.909180 183.067261,357.270477 181.964264,372.607178 
	C181.538498,378.527130 180.430466,384.408417 180.197815,390.329498 
	C179.862000,398.876129 180.040451,407.442993 179.999451,416.001221 
z"/>
<path fill="#F9E9D5" opacity="1.000000" stroke="none" 
	d="
M338.058929,391.044647 
	C325.537476,400.212677 312.131744,407.561523 296.434998,410.616577 
	C297.330017,393.371063 298.666382,376.580780 299.964539,359.787476 
	C301.326752,342.166016 302.708313,324.545807 303.977081,306.917511 
	C305.068573,291.752075 305.954651,276.571808 307.053955,261.406982 
	C307.446991,255.985229 308.381866,250.601700 308.744141,245.179001 
	C309.306793,236.756149 309.689209,228.316635 309.855835,219.878418 
	C309.874390,218.937561 307.994934,217.959229 307.033203,216.646988 
	C309.975159,211.341873 312.856476,206.374283 315.790833,201.438202 
	C318.567780,196.766891 316.870850,190.521713 310.003754,191.597870 
	C310.985168,188.256302 312.571930,185.354309 312.829285,182.338867 
	C314.081421,167.668274 314.976196,152.967178 316.000519,138.277100 
	C316.691132,128.373047 316.878845,118.395615 318.300751,108.597458 
	C318.981842,103.903793 318.250824,100.777802 315.112671,97.426796 
	C311.426025,93.490082 311.600800,89.684685 315.065460,86.243546 
	C310.674591,83.728249 311.637878,80.542442 313.404388,76.670433 
	C315.080719,72.995972 317.509949,68.216187 316.396362,65.053215 
	C314.674164,60.161568 314.116852,56.621254 318.000000,53.000458 
	C331.730621,60.192997 345.385956,67.500610 356.679260,78.928940 
	C352.711578,81.479042 351.090790,86.138115 353.139191,88.436729 
	C357.391815,93.208862 357.688873,99.080933 357.488434,103.947472 
	C356.727478,122.421104 354.552307,140.833954 353.022125,159.279175 
	C351.613953,176.252869 350.341614,193.237885 349.034241,210.219833 
	C347.675781,227.864929 346.357361,245.513123 345.002350,263.158508 
	C343.685516,280.306519 342.278564,297.447906 341.034027,314.601105 
	C339.932281,329.785767 339.069641,344.987823 337.956848,360.171570 
	C337.522583,366.096680 336.227661,371.990509 336.198181,377.902924 
	C336.176422,382.265747 334.000244,387.183105 338.058929,391.044647 
z"/>
<path fill="#F9E6CF" opacity="1.000000" stroke="none" 
	d="
M338.401611,390.994507 
	C334.000244,387.183105 336.176422,382.265747 336.198181,377.902924 
	C336.227661,371.990509 337.522583,366.096680 337.956848,360.171570 
	C339.069641,344.987823 339.932281,329.785767 341.034027,314.601105 
	C342.278564,297.447906 343.685516,280.306519 345.002350,263.158508 
	C346.357361,245.513123 347.675781,227.864929 349.034241,210.219833 
	C350.341614,193.237885 351.613953,176.252869 353.022125,159.279175 
	C354.552307,140.833954 356.727478,122.421104 357.488434,103.947472 
	C357.688873,99.080933 357.391815,93.208862 353.139191,88.436729 
	C351.090790,86.138115 352.711578,81.479042 356.835388,79.224495 
	C372.268890,91.336830 385.577606,105.450722 395.500366,122.728058 
	C394.183655,125.346169 392.373932,127.532303 392.164246,129.862427 
	C390.905518,143.850266 389.978302,157.868668 389.011749,171.881790 
	C388.272156,182.603806 387.728821,193.339813 386.936890,204.057663 
	C385.695404,220.858810 384.309967,237.649277 383.002777,254.445618 
	C382.617981,259.389832 382.360565,264.344696 381.925110,269.284088 
	C380.649445,283.754211 379.260529,298.214447 378.017395,312.687286 
	C376.957489,325.027222 375.926117,337.372192 375.147339,349.731659 
	C374.984283,352.319214 373.311279,356.052185 377.974701,356.991882 
	C368.232361,367.860962 358.066711,378.256805 345.657623,386.178986 
	C343.299988,387.684143 341.046082,389.351746 338.401611,390.994507 
z"/>
<path fill="#FAECDB" opacity="1.000000" stroke="none" 
	d="
M317.794250,52.721497 
	C314.116852,56.621254 314.674164,60.161568 316.396362,65.053215 
	C317.509949,68.216187 315.080719,72.995972 313.404388,76.670433 
	C311.637878,80.542442 310.674591,83.728249 315.065460,86.243546 
	C311.600800,89.684685 311.426025,93.490082 315.112671,97.426796 
	C318.250824,100.777802 318.981842,103.903793 318.300751,108.597458 
	C316.878845,118.395615 316.691132,128.373047 316.000519,138.277100 
	C314.976196,152.967178 314.081421,167.668274 312.829285,182.338867 
	C312.571930,185.354309 310.985168,188.256302 309.605103,191.653336 
	C305.145325,192.894272 301.096161,193.716522 297.037079,194.486450 
	C280.949890,197.537857 264.864105,200.597260 248.766739,203.594345 
	C245.371185,204.226562 243.703827,202.195236 244.987930,199.074844 
	C253.710831,177.877808 262.488556,156.703323 271.200439,135.501785 
	C275.239716,125.671684 279.357239,115.867081 283.089600,105.919731 
	C285.824280,98.631454 283.148773,95.072853 275.491913,95.004417 
	C272.658997,94.979095 269.825897,94.979668 267.049622,94.556885 
	C267.384216,86.621452 268.004120,79.089897 267.835907,71.575996 
	C267.691315,65.117142 266.347748,58.690136 266.094971,52.227119 
	C265.892761,47.056129 265.178528,42.383392 261.244934,38.591774 
	C260.430573,37.806801 260.394836,36.214050 260.000244,34.993591 
	C274.862030,36.014542 288.759277,40.873749 302.587830,45.887054 
	C307.707397,47.743065 312.595093,50.238640 317.794250,52.721497 
z"/>
<path fill="#FAECDB" opacity="1.000000" stroke="none" 
	d="
M306.995728,216.998276 
	C307.994934,217.959229 309.874390,218.937561 309.855835,219.878418 
	C309.689209,228.316635 309.306793,236.756149 308.744141,245.179001 
	C308.381866,250.601700 307.446991,255.985229 307.053955,261.406982 
	C305.954651,276.571808 305.068573,291.752075 303.977081,306.917511 
	C302.708313,324.545807 301.326752,342.166016 299.964539,359.787476 
	C298.666382,376.580780 297.330017,393.371063 296.023560,410.631409 
	C295.412567,411.757690 294.905609,412.768738 294.146851,413.020294 
	C280.399872,417.578003 266.443939,421.198761 251.447693,421.563446 
	C251.992126,410.286865 253.139816,399.462097 253.942612,388.611847 
	C255.404434,368.854462 256.612701,349.078461 258.032745,329.317810 
	C258.481293,323.076477 259.450775,316.870056 259.815552,310.626282 
	C259.976013,307.880066 260.535889,304.306610 256.133240,303.680115 
	C265.076630,288.202606 273.834106,273.014557 282.710571,257.896393 
	C290.738098,244.224060 298.895569,230.627975 306.995728,216.998276 
z"/>
<path fill="#F7E4CA" opacity="1.000000" stroke="none" 
	d="
M378.279144,356.829468 
	C373.311279,356.052185 374.984283,352.319214 375.147339,349.731659 
	C375.926117,337.372192 376.957489,325.027222 378.017395,312.687286 
	C379.260529,298.214447 380.649445,283.754211 381.925110,269.284088 
	C382.360565,264.344696 382.617981,259.389832 383.002777,254.445618 
	C384.309967,237.649277 385.695404,220.858810 386.936890,204.057663 
	C387.728821,193.339813 388.272156,182.603806 389.011749,171.881790 
	C389.978302,157.868668 390.905518,143.850266 392.164246,129.862427 
	C392.373932,127.532303 394.183655,125.346169 395.631226,123.045311 
	C407.984436,140.276794 415.642029,159.479660 420.930786,179.676697 
	C425.834229,198.402252 427.921814,217.535202 426.889954,236.831451 
	C424.801086,275.893951 412.445770,311.472687 389.256989,343.123322 
	C385.862000,347.757172 382.149261,352.158234 378.279144,356.829468 
z"/>
<path fill="#FCF3E4" opacity="1.000000" stroke="none" 
	d="
M180.248444,416.280579 
	C180.040451,407.442993 179.862000,398.876129 180.197815,390.329498 
	C180.430466,384.408417 181.538498,378.527130 181.964264,372.607178 
	C183.067261,357.270477 183.844330,341.909180 185.057846,326.581970 
	C186.530457,307.982452 188.506012,289.421722 189.878571,270.815826 
	C190.457855,262.963165 190.052948,255.037918 190.298569,246.588226 
	C199.010330,244.608658 207.523712,243.214523 216.026123,241.756348 
	C224.046448,240.380875 227.148880,243.129562 225.886871,251.111969 
	C220.833862,283.073395 215.614655,315.008514 210.520874,346.963562 
	C208.614929,358.920227 206.883621,370.904694 205.165451,383.142365 
	C205.591995,383.544830 205.925797,383.681427 206.367645,383.791382 
	C206.475677,383.764679 206.697632,383.781464 207.071411,383.827637 
	C208.545776,382.773743 209.867996,381.819946 210.707504,380.547668 
	C213.874100,375.748627 216.883759,370.846039 220.346252,366.038086 
	C221.493149,367.561890 222.881317,369.030396 222.879944,370.497589 
	C222.875793,374.938477 222.308289,379.377197 222.004898,383.819794 
	C221.273956,394.522980 220.475250,405.223175 219.926025,415.935913 
	C219.806870,418.260223 220.619476,420.632263 221.002899,422.982330 
	C207.501083,420.841522 193.999268,418.700714 180.248444,416.280579 
z"/>
<path fill="#FBF1E1" opacity="1.000000" stroke="none" 
	d="
M259.718079,34.705177 
	C260.394836,36.214050 260.430573,37.806801 261.244934,38.591774 
	C265.178528,42.383392 265.892761,47.056129 266.094971,52.227119 
	C266.347748,58.690136 267.691315,65.117142 267.835907,71.575996 
	C268.004120,79.089897 267.384216,86.621452 266.581787,94.567360 
	C254.004669,95.014641 241.952118,95.039902 229.438690,95.043640 
	C223.648819,94.959465 218.319794,94.896828 212.990784,94.834198 
	C212.445801,91.330399 211.900818,87.826599 211.266861,83.750778 
	C211.668961,80.094246 212.161285,75.617012 212.770203,70.079636 
	C217.941971,67.695045 214.445908,64.631401 210.860901,61.808685 
	C216.851761,57.090099 217.214310,53.738205 213.349655,47.280735 
	C210.955460,43.280251 209.099686,38.957535 207.003479,34.395844 
	C215.341522,33.371830 223.684433,32.156693 232.013458,32.245472 
	C241.160965,32.342968 250.295639,33.641521 259.718079,34.705177 
z"/>
<path fill="#FCF0E0" opacity="1.000000" stroke="none" 
	d="
M221.471268,422.988342 
	C220.619476,420.632263 219.806870,418.260223 219.926025,415.935913 
	C220.475250,405.223175 221.273956,394.522980 222.004898,383.819794 
	C222.308289,379.377197 222.875793,374.938477 222.879944,370.497589 
	C222.881317,369.030396 221.493149,367.561890 220.396362,365.686707 
	C224.447372,357.678528 228.798065,350.051666 233.247177,342.482605 
	C240.798523,329.635864 248.411880,316.825592 255.999176,304.000000 
	C260.535889,304.306610 259.976013,307.880066 259.815552,310.626282 
	C259.450775,316.870056 258.481293,323.076477 258.032745,329.317810 
	C256.612701,349.078461 255.404434,368.854462 253.942612,388.611847 
	C253.139816,399.462097 251.992126,410.286865 250.999664,421.563416 
	C246.103683,422.337219 241.212372,422.799133 236.311005,422.967773 
	C231.525909,423.132416 226.730499,422.997681 221.471268,422.988342 
z"/>
<path fill="#E39E4B" opacity="1.000000" stroke="none" 
	d="
M212.526184,94.893211 
	C218.319794,94.896828 223.648819,94.959465 229.478958,95.460266 
	C228.209702,106.693710 226.519135,117.502792 224.653610,128.281601 
	C219.536636,157.846970 214.332947,187.397339 209.199890,216.959930 
	C208.481003,221.100128 210.658798,223.810532 214.808121,223.951218 
	C216.614838,224.012497 218.434708,223.633484 220.250748,223.479736 
	C230.168503,222.640182 240.074280,221.551682 250.009460,221.062790 
	C256.821320,220.727600 260.487854,225.825928 258.305634,232.335266 
	C250.647064,255.179993 242.812012,277.965576 235.033142,300.769928 
	C225.593689,328.442413 216.143295,356.111115 206.697632,383.781464 
	C206.697632,383.781464 206.475677,383.764679 206.211395,383.586792 
	C205.655640,383.231415 205.364182,383.053955 205.072708,382.876495 
	C206.883621,370.904694 208.614929,358.920227 210.520874,346.963562 
	C215.614655,315.008514 220.833862,283.073395 225.886871,251.111969 
	C227.148880,243.129562 224.046448,240.380875 216.026123,241.756348 
	C207.523712,243.214523 199.010330,244.608658 190.155823,246.148712 
	C186.026138,246.831100 182.254715,247.504166 178.455933,247.936768 
	C171.218460,248.760956 168.306610,246.029205 169.190323,238.889008 
	C171.191055,222.723373 173.420807,206.586258 175.508972,190.431274 
	C178.704697,165.707825 181.855042,140.978516 185.036285,116.253189 
	C185.566467,112.132515 185.955109,107.979500 186.764862,103.912247 
	C187.970932,97.854317 191.468369,95.087845 197.574036,95.004021 
	C202.402542,94.937729 207.232346,94.965973 212.526184,94.893211 
z"/>
<path fill="#FADEB7" opacity="1.000000" stroke="none" 
	d="
M207.071426,383.827637 
	C216.143295,356.111115 225.593689,328.442413 235.033142,300.769928 
	C242.812012,277.965576 250.647064,255.179993 258.305634,232.335266 
	C260.487854,225.825928 256.821320,220.727600 250.009460,221.062790 
	C240.074280,221.551682 230.168503,222.640182 220.250748,223.479736 
	C218.434708,223.633484 216.614838,224.012497 214.808121,223.951218 
	C210.658798,223.810532 208.481003,221.100128 209.199890,216.959930 
	C214.332947,187.397339 219.536636,157.846970 224.653610,128.281601 
	C226.519135,117.502792 228.209702,106.693710 229.939819,95.481796 
	C241.952118,95.039902 254.004669,95.014641 266.525024,94.978905 
	C269.825897,94.979668 272.658997,94.979095 275.491913,95.004417 
	C283.148773,95.072853 285.824280,98.631454 283.089600,105.919731 
	C279.357239,115.867081 275.239716,125.671684 271.200439,135.501785 
	C262.488556,156.703323 253.710831,177.877808 244.987930,199.074844 
	C243.703827,202.195236 245.371185,204.226562 248.766739,203.594345 
	C264.864105,200.597260 280.949890,197.537857 297.037079,194.486450 
	C301.096161,193.716522 305.145325,192.894272 309.597687,192.040619 
	C316.870850,190.521713 318.567780,196.766891 315.790833,201.438202 
	C312.856476,206.374283 309.975159,211.341873 307.033203,216.646988 
	C298.895569,230.627975 290.738098,244.224060 282.710571,257.896393 
	C273.834106,273.014557 265.076630,288.202606 256.133240,303.680115 
	C248.411880,316.825592 240.798523,329.635864 233.247177,342.482605 
	C228.798065,350.051666 224.447372,357.678528 220.002289,365.630798 
	C216.883759,370.846039 213.874100,375.748627 210.707504,380.547668 
	C209.867996,381.819946 208.545776,382.773743 207.071426,383.827637 
z"/>
<path fill="#FADEB7" opacity="1.000000" stroke="none" 
	d="
M205.165451,383.142365 
	C205.364182,383.053955 205.655640,383.231415 206.103363,383.613464 
	C205.925797,383.681427 205.591995,383.544830 205.165451,383.142365 
z"/>
</svg>