<svg width="22" height="21" viewBox="0 0 22 21" fill="none" xmlns="http://www.w3.org/2000/svg">
<path d="M5.09929 2.53496L4.94686 2.71946C5.01286 2.49446 5.06157 2.31746 5.09457 2.18396L5.24229 1.58396C5.39315 1.14896 5.29572 0.889457 4.84157 0.743957C4.499 0.688457 4.19729 0.736457 4.04643 1.02596L3.32043 3.94796C3.21986 4.29296 3.18529 4.55096 3.63943 4.69646L6.48529 5.38646C6.941 5.53046 7.26629 5.34746 7.39672 4.98746C7.524 4.62596 7.24586 4.27046 6.90643 4.20446L5.70115 3.90746C5.81272 3.83096 5.80486 3.78446 5.96357 3.66446C7.76757 2.31446 9.32958 1.58246 11.2986 1.58246C15.84 1.58246 19.8236 5.48546 19.8236 9.82046C19.8236 14.157 15.84 17.985 11.2986 17.985C6.75715 17.985 2.77357 14.157 2.77357 9.82046C2.77357 9.38696 2.475 9.04046 2.01929 9.04046C1.56515 9.04046 1.28857 9.38696 1.28857 9.82046C1.28857 15.0255 5.84729 19.4145 11.2986 19.4145C16.7483 19.4145 21.3463 15.012 21.3463 9.80846C21.3463 4.60496 16.9934 0.230957 11.3174 0.230957C9.01956 0.247181 6.8075 1.06628 5.09929 2.53346V2.53496ZM10.1043 6.75146V11.313C10.1043 11.748 10.4076 12.036 10.8617 12.036H14.3C14.7557 12.036 15.0386 11.7465 15.0386 11.313C15.0386 10.8795 14.7557 10.677 14.3 10.677H11.5814V6.75296C11.5814 6.31946 11.3237 6.02246 10.868 6.02246C10.4139 6.02246 10.1059 6.31946 10.1059 6.75296L10.1043 6.75146Z" fill="url(#paint0_linear_1059_2890)"/>
<defs>
<linearGradient id="paint0_linear_1059_2890" x1="21.3463" y1="19.4145" x2="-5.37167" y2="17.2528" gradientUnits="userSpaceOnUse">
<stop stop-color="#6131AD"/>
<stop offset="1" stop-color="#D4B9FF"/>
</linearGradient>
</defs>
</svg>
